<svg width="127" height="39" viewBox="0 0 127 39" fill="none" xmlns="http://www.w3.org/2000/svg">
<path d="M43.9159 24.2236V15.3032H45.9774C47.5246 15.3032 48.8428 14.75 49.9319 13.6436C51.021 12.5372 51.5656 11.206 51.5656 9.65017V6.21427C51.5656 4.59789 51.0859 3.26675 50.1264 2.22086C49.0978 1.1231 47.7148 0.574219 45.9774 0.574219H40.3633V24.2236H43.9159ZM46.0682 11.7765H43.9159V4.21756H46.0682C46.6905 4.21756 47.1854 4.40557 47.5527 4.78157C47.9201 5.15757 48.1038 5.65675 48.1038 6.2791V9.72796C48.1038 10.2898 47.9071 10.7717 47.5138 11.1736C47.1205 11.5756 46.6387 11.7765 46.0682 11.7765ZM57.2289 24.2236L58.0975 18.7909H61.8187L62.6615 24.2236H66.3956L62.441 0.574219H57.5271L53.5207 24.2236H57.2289ZM61.2871 15.3162H58.6421L59.9646 5.99386L61.2871 15.3162ZM74.3537 24.2236V15.3032H76.4153C77.9625 15.3032 79.2807 14.75 80.3698 13.6436C81.4589 12.5372 82.0035 11.206 82.0035 9.65017V6.21427C82.0035 4.59789 81.5237 3.26675 80.5643 2.22086C79.5357 1.1231 78.1527 0.574219 76.4153 0.574219H70.8011V24.2236H74.3537ZM76.506 11.7765H74.3537V4.21756H76.506C77.1284 4.21756 77.6232 4.40557 77.9906 4.78157C78.358 5.15757 78.5416 5.65675 78.5416 6.2791V9.72796C78.5416 10.2898 78.345 10.7717 77.9517 11.1736C77.5584 11.5756 77.0765 11.7765 76.506 11.7765ZM96.3926 24.2236V20.658H89.806V14.1881H94.6163V10.6096H89.806V4.13977H96.3926V0.574219H86.2535V24.2236H96.3926ZM103.806 24.2236V15.3032H105.855C105.967 15.3032 106.075 15.2989 106.179 15.2902L108.357 24.2236H112.208L109.563 13.8899C110.834 12.7403 111.469 11.3271 111.469 9.65017V6.21427C111.469 4.51145 111.058 3.18031 110.237 2.22086C109.312 1.1231 107.856 0.574219 105.868 0.574219H100.254V24.2236H103.806ZM105.959 11.7765H103.806V4.21756H105.959C107.316 4.21756 107.994 4.90474 107.994 6.2791V9.72796C107.994 10.2898 107.797 10.7717 107.404 11.1736C107.011 11.5756 106.529 11.7765 105.959 11.7765ZM126.856 24.2236V20.6839H120.296L126.856 4.13977V0.574219H116.458V4.13977H123.032L116.458 20.6839V24.2236H126.856Z" fill="#04091E"/>
<path d="M42.9962 36.3378V35.8179H40.4219V30.619H39.793V36.3378H42.9962ZM45.3692 36.4719C45.7829 36.4719 46.1407 36.3895 46.4426 36.2246C46.7444 36.0597 46.9876 35.8319 47.1721 35.5412L46.7193 35.2393C46.5851 35.4629 46.4076 35.6376 46.1868 35.7634C45.966 35.8892 45.6879 35.952 45.3525 35.952C44.9388 35.952 44.6118 35.8095 44.3714 35.5244C44.131 35.2393 43.9996 34.8955 43.9773 34.493H47.2056C47.2112 34.4371 47.214 34.356 47.214 34.2498C47.214 33.8809 47.133 33.5468 46.9708 33.2478C46.8087 32.9487 46.5851 32.7125 46.3 32.5392C46.0149 32.3659 45.6963 32.2793 45.3441 32.2793C44.9695 32.2793 44.6355 32.3687 44.342 32.5476C44.0485 32.7265 43.8193 32.9752 43.6544 33.2939C43.4895 33.6125 43.4071 33.9731 43.4071 34.3756C43.4071 34.7781 43.4909 35.1387 43.6586 35.4573C43.8263 35.776 44.0583 36.0247 44.3546 36.2036C44.6509 36.3825 44.9891 36.4719 45.3692 36.4719ZM46.6438 34.0234H44.0108C44.0723 33.6712 44.219 33.3791 44.451 33.1471C44.683 32.9151 44.9807 32.7991 45.3441 32.7991C45.7186 32.7991 46.0149 32.9012 46.2329 33.1052C46.4509 33.3093 46.5879 33.6153 46.6438 34.0234ZM49.7632 36.4719C50.0427 36.4719 50.2998 36.409 50.5346 36.2833C50.7694 36.1575 50.9679 35.9828 51.13 35.7592V36.3378H51.7002V32.4134H51.13V33.0004C50.9679 32.7712 50.768 32.5937 50.5304 32.4679C50.2928 32.3421 50.0315 32.2793 49.7464 32.2793C49.3718 32.2793 49.0378 32.3687 48.7443 32.5476C48.4509 32.7265 48.2217 32.9738 48.0567 33.2897C47.8918 33.6055 47.8094 33.9647 47.8094 34.3672C47.8094 34.7753 47.8932 35.1387 48.0609 35.4573C48.2286 35.776 48.4606 36.0247 48.7569 36.2036C49.0532 36.3825 49.3886 36.4719 49.7632 36.4719ZM49.7464 35.952C49.4837 35.952 49.2489 35.885 49.042 35.7508C48.8352 35.6166 48.6731 35.4294 48.5557 35.189C48.4383 34.9486 48.3796 34.6747 48.3796 34.3672C48.3796 34.0653 48.4383 33.7956 48.5557 33.558C48.6731 33.3204 48.8352 33.1346 49.042 33.0004C49.2489 32.8662 49.4837 32.7991 49.7464 32.7991C50.0147 32.7991 50.2537 32.8662 50.4633 33.0004C50.673 33.1346 50.8365 33.3218 50.9539 33.5622C51.0713 33.8026 51.13 34.0737 51.13 34.3756C51.13 34.6775 51.0713 34.9486 50.9539 35.189C50.8365 35.4294 50.673 35.6166 50.4633 35.7508C50.2537 35.885 50.0147 35.952 49.7464 35.952ZM54.4673 36.4719C54.7469 36.4719 55.004 36.409 55.2388 36.2833C55.4736 36.1575 55.672 35.9828 55.8342 35.7592V36.3378H56.4044V30.25H55.8342V33.0004C55.672 32.7712 55.4722 32.5937 55.2346 32.4679C54.997 32.3421 54.7357 32.2793 54.4506 32.2793C54.076 32.2793 53.742 32.3687 53.4485 32.5476C53.155 32.7265 52.9258 32.9738 52.7609 33.2897C52.596 33.6055 52.5136 33.9647 52.5136 34.3672C52.5136 34.7753 52.5974 35.1387 52.7651 35.4573C52.9328 35.776 53.1648 36.0247 53.4611 36.2036C53.7574 36.3825 54.0928 36.4719 54.4673 36.4719ZM54.4506 35.952C54.1878 35.952 53.953 35.885 53.7462 35.7508C53.5394 35.6166 53.3773 35.4294 53.2599 35.189C53.1425 34.9486 53.0838 34.6747 53.0838 34.3672C53.0838 34.0653 53.1425 33.7956 53.2599 33.558C53.3773 33.3204 53.5394 33.1346 53.7462 33.0004C53.953 32.8662 54.1878 32.7991 54.4506 32.7991C54.7189 32.7991 54.9579 32.8662 55.1675 33.0004C55.3772 33.1346 55.5407 33.3218 55.6581 33.5622C55.7755 33.8026 55.8342 34.0737 55.8342 34.3756C55.8342 34.6775 55.7755 34.9486 55.6581 35.189C55.5407 35.4294 55.3772 35.6166 55.1675 35.7508C54.9579 35.885 54.7189 35.952 54.4506 35.952ZM58.0563 31.6504C58.1793 31.6504 58.2855 31.6056 58.3749 31.5162C58.4644 31.4267 58.5091 31.3205 58.5091 31.1975C58.5091 31.069 58.4644 30.9614 58.3749 30.8747C58.2855 30.7881 58.1793 30.7447 58.0563 30.7447C57.9277 30.7447 57.8201 30.7881 57.7334 30.8747C57.6468 30.9614 57.6035 31.0662 57.6035 31.1892C57.6035 31.3177 57.6468 31.4267 57.7334 31.5162C57.8201 31.6056 57.9277 31.6504 58.0563 31.6504ZM58.3414 36.3378V32.4134H57.7712V36.3378H58.3414ZM60.2784 36.3378V34.3756C60.2784 33.8948 60.379 33.5119 60.5803 33.2268C60.7815 32.9417 61.0834 32.7991 61.4859 32.7991C62.1791 32.7991 62.5257 33.1877 62.5257 33.9647V36.3378H63.0959V33.7132C63.0959 33.4169 63.0274 33.1597 62.8904 32.9417C62.7535 32.7237 62.569 32.5588 62.337 32.447C62.105 32.3352 61.8521 32.2793 61.5781 32.2793C61.2874 32.2793 61.0317 32.3477 60.8109 32.4847C60.5901 32.6217 60.4126 32.8159 60.2784 33.0675V32.4134H59.7082V36.3378H60.2784ZM66.1314 38.0148C66.4668 38.0148 66.7659 37.9366 67.0286 37.7801C67.2914 37.6235 67.4954 37.4069 67.6407 37.1302C67.7861 36.8535 67.8588 36.539 67.8588 36.1868V32.4134H67.2886V33.0004C67.1264 32.7712 66.9266 32.5937 66.689 32.4679C66.4514 32.3421 66.1901 32.2793 65.905 32.2793C65.5304 32.2793 65.1964 32.3687 64.9029 32.5476C64.6094 32.7265 64.3802 32.9738 64.2153 33.2897C64.0504 33.6055 63.968 33.9647 63.968 34.3672C63.968 34.7753 64.0518 35.1387 64.2195 35.4573C64.3872 35.776 64.6192 36.0247 64.9155 36.2036C65.2118 36.3825 65.5472 36.4719 65.9217 36.4719C66.2013 36.4719 66.4584 36.409 66.6932 36.2833C66.928 36.1575 67.1264 35.9828 67.2886 35.7592V36.1868C67.2886 36.567 67.181 36.88 66.9657 37.126C66.7505 37.372 66.4724 37.495 66.1314 37.495H64.5046V38.0148H66.1314ZM65.905 35.952C65.6422 35.952 65.4074 35.885 65.2006 35.7508C64.9938 35.6166 64.8317 35.4294 64.7143 35.189C64.5969 34.9486 64.5382 34.6747 64.5382 34.3672C64.5382 34.0653 64.5969 33.7956 64.7143 33.558C64.8317 33.3204 64.9938 33.1346 65.2006 33.0004C65.4074 32.8662 65.6422 32.7991 65.905 32.7991C66.1733 32.7991 66.4123 32.8662 66.6219 33.0004C66.8316 33.1346 66.9951 33.3218 67.1125 33.5622C67.2299 33.8026 67.2886 34.0737 67.2886 34.3756C67.2886 34.6775 67.2299 34.9486 67.1125 35.189C66.9951 35.4294 66.8316 35.6166 66.6219 35.7508C66.4123 35.885 66.1733 35.952 65.905 35.952ZM71.5567 36.3378V34.1492H72.7726C73.3037 34.1492 73.7299 33.9927 74.0514 33.6796C74.3728 33.3666 74.5335 32.9361 74.5335 32.3883C74.5335 31.8348 74.3798 31.4016 74.0723 31.0885C73.7649 30.7755 73.354 30.619 72.8397 30.619H70.9278V36.3378H71.5567ZM72.7558 33.6293H71.5567V31.1388H72.7558C73.1304 31.1388 73.4155 31.2451 73.6111 31.4575C73.8068 31.6699 73.9046 31.9802 73.9046 32.3883C73.9046 32.7964 73.8068 33.1052 73.6111 33.3149C73.4155 33.5245 73.1304 33.6293 72.7558 33.6293ZM76.982 36.4719C77.2615 36.4719 77.5187 36.409 77.7535 36.2833C77.9883 36.1575 78.1867 35.9828 78.3489 35.7592V36.3378H78.9191V32.4134H78.3489V33.0004C78.1867 32.7712 77.9869 32.5937 77.7493 32.4679C77.5117 32.3421 77.2504 32.2793 76.9653 32.2793C76.5907 32.2793 76.2567 32.3687 75.9632 32.5476C75.6697 32.7265 75.4405 32.9738 75.2756 33.2897C75.1107 33.6055 75.0282 33.9647 75.0282 34.3672C75.0282 34.7753 75.1121 35.1387 75.2798 35.4573C75.4475 35.776 75.6795 36.0247 75.9758 36.2036C76.2721 36.3825 76.6075 36.4719 76.982 36.4719ZM76.9653 35.952C76.7025 35.952 76.4677 35.885 76.2609 35.7508C76.0541 35.6166 75.8919 35.4294 75.7745 35.189C75.6572 34.9486 75.5985 34.6747 75.5985 34.3672C75.5985 34.0653 75.6572 33.7956 75.7745 33.558C75.8919 33.3204 76.0541 33.1346 76.2609 33.0004C76.4677 32.8662 76.7025 32.7991 76.9653 32.7991C77.2336 32.7991 77.4726 32.8662 77.6822 33.0004C77.8918 33.1346 78.0554 33.3218 78.1728 33.5622C78.2902 33.8026 78.3489 34.0737 78.3489 34.3756C78.3489 34.6775 78.2902 34.9486 78.1728 35.189C78.0554 35.4294 77.8918 35.6166 77.6822 35.7508C77.4726 35.885 77.2336 35.952 76.9653 35.952ZM80.5542 38.0148V35.7508C80.7163 35.98 80.9162 36.1575 81.1538 36.2833C81.3913 36.409 81.6527 36.4719 81.9378 36.4719C82.3123 36.4719 82.6463 36.3825 82.9398 36.2036C83.2333 36.0247 83.4625 35.7774 83.6274 35.4615C83.7923 35.1457 83.8748 34.7865 83.8748 34.384C83.8748 33.9759 83.7909 33.6125 83.6232 33.2939C83.4555 32.9752 83.2235 32.7265 82.9273 32.5476C82.631 32.3687 82.2956 32.2793 81.921 32.2793C81.6415 32.2793 81.3843 32.3421 81.1496 32.4679C80.9148 32.5937 80.7163 32.7684 80.5542 32.992V32.4134H79.984V38.0148H80.5542ZM81.9378 35.952C81.6695 35.952 81.4305 35.885 81.2208 35.7508C81.0112 35.6166 80.8477 35.4294 80.7303 35.189C80.6129 34.9486 80.5542 34.6775 80.5542 34.3756C80.5542 34.0737 80.6129 33.8026 80.7303 33.5622C80.8477 33.3218 81.0112 33.1346 81.2208 33.0004C81.4305 32.8662 81.6695 32.7991 81.9378 32.7991C82.2005 32.7991 82.4353 32.8662 82.6422 33.0004C82.849 33.1346 83.0111 33.3218 83.1285 33.5622C83.2459 33.8026 83.3046 34.0765 83.3046 34.384C83.3046 34.6859 83.2459 34.9556 83.1285 35.1932C83.0111 35.4308 82.849 35.6166 82.6422 35.7508C82.4353 35.885 82.2005 35.952 81.9378 35.952ZM86.3988 36.4719C86.8125 36.4719 87.1702 36.3895 87.4721 36.2246C87.774 36.0597 88.0172 35.8319 88.2016 35.5412L87.7488 35.2393C87.6147 35.4629 87.4372 35.6376 87.2164 35.7634C86.9955 35.8892 86.7174 35.952 86.382 35.952C85.9683 35.952 85.6413 35.8095 85.4009 35.5244C85.1606 35.2393 85.0292 34.8955 85.0068 34.493H88.2352C88.2408 34.4371 88.2436 34.356 88.2436 34.2498C88.2436 33.8809 88.1625 33.5468 88.0004 33.2478C87.8383 32.9487 87.6147 32.7125 87.3296 32.5392C87.0445 32.3659 86.7258 32.2793 86.3736 32.2793C85.9991 32.2793 85.6651 32.3687 85.3716 32.5476C85.0781 32.7265 84.8489 32.9752 84.684 33.2939C84.5191 33.6125 84.4366 33.9731 84.4366 34.3756C84.4366 34.7781 84.5205 35.1387 84.6882 35.4573C84.8559 35.776 85.0879 36.0247 85.3842 36.2036C85.6804 36.3825 86.0187 36.4719 86.3988 36.4719ZM87.6734 34.0234H85.0404C85.1019 33.6712 85.2486 33.3791 85.4806 33.1471C85.7126 32.9151 86.0103 32.7991 86.3736 32.7991C86.7482 32.7991 87.0445 32.9012 87.2625 33.1052C87.4805 33.3093 87.6175 33.6153 87.6734 34.0234ZM89.6523 36.3378V34.4595C89.6523 34.1129 89.7152 33.8124 89.841 33.558C89.9668 33.3037 90.1331 33.1094 90.3399 32.9752C90.5467 32.8411 90.7704 32.774 91.0107 32.774C91.1505 32.774 91.2791 32.8019 91.3965 32.8578V32.338C91.2735 32.2988 91.1449 32.2793 91.0107 32.2793C90.72 32.2793 90.4587 32.3603 90.2267 32.5224C89.9947 32.6845 89.8032 32.911 89.6523 33.2016V32.4134H89.0821V36.3378H89.6523ZM96.0587 36.4719C96.5171 36.4719 96.9126 36.3573 97.2453 36.1281C97.5779 35.8989 97.8448 35.5663 98.0461 35.1303L97.5178 34.8116C97.3277 35.1862 97.1223 35.4615 96.9015 35.6376C96.6806 35.8137 96.3718 35.9017 95.9749 35.9017C95.6562 35.9017 95.3767 35.8053 95.1363 35.6124C94.896 35.4196 94.7115 35.1415 94.5829 34.7781C94.4543 34.4147 94.39 33.9843 94.39 33.4867C94.39 32.7265 94.5312 32.1325 94.8135 31.7049C95.0958 31.2772 95.4857 31.0634 95.9833 31.0634C96.3299 31.0634 96.6233 31.1347 96.8637 31.2772C97.1041 31.4198 97.3137 31.6559 97.4926 31.9858L97.9957 31.6923C97.8057 31.3121 97.5415 31.0173 97.2033 30.8076C96.8651 30.598 96.4584 30.4932 95.9833 30.4932C95.5193 30.4932 95.1182 30.612 94.78 30.8496C94.4418 31.0871 94.1818 31.4309 94.0001 31.881C93.8184 32.331 93.7276 32.869 93.7276 33.4951C93.7276 34.1157 93.8212 34.6481 94.0085 35.0925C94.1958 35.537 94.4641 35.878 94.8135 36.1156C95.1629 36.3531 95.578 36.4719 96.0587 36.4719ZM100.578 36.4719C100.953 36.4719 101.287 36.3825 101.58 36.2036C101.874 36.0247 102.103 35.776 102.268 35.4573C102.433 35.1387 102.515 34.7781 102.515 34.3756C102.515 33.9731 102.432 33.6125 102.264 33.2939C102.096 32.9752 101.864 32.7265 101.568 32.5476C101.272 32.3687 100.936 32.2793 100.562 32.2793C100.187 32.2793 99.8531 32.3687 99.5596 32.5476C99.2661 32.7265 99.0369 32.9738 98.872 33.2897C98.7071 33.6055 98.6247 33.9647 98.6247 34.3672C98.6247 34.7697 98.7085 35.1317 98.8762 35.4531C99.0439 35.7746 99.2759 36.0247 99.5722 36.2036C99.8685 36.3825 100.204 36.4719 100.578 36.4719ZM100.562 35.952C100.299 35.952 100.064 35.885 99.8573 35.7508C99.6505 35.6166 99.4883 35.4294 99.3709 35.189C99.2535 34.9486 99.1949 34.6747 99.1949 34.3672C99.1949 34.0653 99.2535 33.7956 99.3709 33.558C99.4883 33.3204 99.6505 33.1346 99.8573 33.0004C100.064 32.8662 100.299 32.7991 100.562 32.7991C100.83 32.7991 101.069 32.8662 101.279 33.0004C101.488 33.1346 101.652 33.3218 101.769 33.5622C101.887 33.8026 101.945 34.0737 101.945 34.3756C101.945 34.6775 101.887 34.9486 101.769 35.189C101.652 35.4294 101.488 35.6166 101.279 35.7508C101.069 35.885 100.83 35.952 100.562 35.952ZM103.891 36.3378V34.3756C103.891 33.8948 103.976 33.5119 104.146 33.2268C104.317 32.9417 104.573 32.7991 104.914 32.7991C105.165 32.7991 105.369 32.89 105.526 33.0717C105.682 33.2534 105.761 33.551 105.761 33.9647V36.3378H106.331V34.124C106.359 33.7159 106.458 33.3931 106.628 33.1555C106.799 32.9179 107.038 32.7991 107.345 32.7991C107.597 32.7991 107.801 32.89 107.958 33.0717C108.114 33.2534 108.192 33.551 108.192 33.9647V36.3378H108.763V33.7132C108.763 33.2659 108.642 32.9151 108.402 32.6608C108.162 32.4064 107.86 32.2793 107.496 32.2793C107.217 32.2793 106.971 32.3575 106.758 32.514C106.546 32.6706 106.378 32.8886 106.255 33.1681C106.171 32.883 106.023 32.6636 105.811 32.5099C105.598 32.3561 105.35 32.2793 105.065 32.2793C104.807 32.2793 104.58 32.3435 104.381 32.4721C104.183 32.6007 104.019 32.7852 103.891 33.0256V32.4134H103.32V36.3378H103.891ZM110.356 38.0148V35.7508C110.518 35.98 110.718 36.1575 110.955 36.2833C111.193 36.409 111.454 36.4719 111.739 36.4719C112.114 36.4719 112.448 36.3825 112.741 36.2036C113.035 36.0247 113.264 35.7774 113.429 35.4615C113.594 35.1457 113.676 34.7865 113.676 34.384C113.676 33.9759 113.593 33.6125 113.425 33.2939C113.257 32.9752 113.025 32.7265 112.729 32.5476C112.433 32.3687 112.097 32.2793 111.723 32.2793C111.443 32.2793 111.186 32.3421 110.951 32.4679C110.716 32.5937 110.518 32.7684 110.356 32.992V32.4134H109.786V38.0148H110.356ZM111.739 35.952C111.471 35.952 111.232 35.885 111.022 35.7508C110.813 35.6166 110.649 35.4294 110.532 35.189C110.414 34.9486 110.356 34.6775 110.356 34.3756C110.356 34.0737 110.414 33.8026 110.532 33.5622C110.649 33.3218 110.813 33.1346 111.022 33.0004C111.232 32.8662 111.471 32.7991 111.739 32.7991C112.002 32.7991 112.237 32.8662 112.444 33.0004C112.651 33.1346 112.813 33.3218 112.93 33.5622C113.047 33.8026 113.106 34.0765 113.106 34.384C113.106 34.6859 113.047 34.9556 112.93 35.1932C112.813 35.4308 112.651 35.6166 112.444 35.7508C112.237 35.885 112.002 35.952 111.739 35.952ZM116.192 36.4719C116.471 36.4719 116.729 36.409 116.963 36.2833C117.198 36.1575 117.397 35.9828 117.559 35.7592V36.3378H118.129V32.4134H117.559V33.0004C117.397 32.7712 117.197 32.5937 116.959 32.4679C116.722 32.3421 116.46 32.2793 116.175 32.2793C115.801 32.2793 115.467 32.3687 115.173 32.5476C114.88 32.7265 114.65 32.9738 114.486 33.2897C114.321 33.6055 114.238 33.9647 114.238 34.3672C114.238 34.7753 114.322 35.1387 114.49 35.4573C114.657 35.776 114.889 36.0247 115.186 36.2036C115.482 36.3825 115.817 36.4719 116.192 36.4719ZM116.175 35.952C115.912 35.952 115.678 35.885 115.471 35.7508C115.264 35.6166 115.102 35.4294 114.984 35.189C114.867 34.9486 114.808 34.6747 114.808 34.3672C114.808 34.0653 114.867 33.7956 114.984 33.558C115.102 33.3204 115.264 33.1346 115.471 33.0004C115.678 32.8662 115.912 32.7991 116.175 32.7991C116.444 32.7991 116.683 32.8662 116.892 33.0004C117.102 33.1346 117.265 33.3218 117.383 33.5622C117.5 33.8026 117.559 34.0737 117.559 34.3756C117.559 34.6775 117.5 34.9486 117.383 35.189C117.265 35.4294 117.102 35.6166 116.892 35.7508C116.683 35.885 116.444 35.952 116.175 35.952ZM119.756 36.3378V34.3756C119.756 33.8948 119.856 33.5119 120.058 33.2268C120.259 32.9417 120.561 32.7991 120.963 32.7991C121.656 32.7991 122.003 33.1877 122.003 33.9647V36.3378H122.573V33.7132C122.573 33.4169 122.505 33.1597 122.368 32.9417C122.231 32.7237 122.046 32.5588 121.814 32.447C121.582 32.3352 121.329 32.2793 121.055 32.2793C120.765 32.2793 120.509 32.3477 120.288 32.4847C120.067 32.6217 119.89 32.8159 119.756 33.0675V32.4134H119.186V36.3378H119.756ZM124.804 38.0148L126.925 32.4134H126.389L125.139 35.6669L123.839 32.4134H123.244L124.854 36.4132L124.234 38.0148H124.804Z" fill="#04091E"/>
<path fill-rule="evenodd" clip-rule="evenodd" d="M20.0317 6.05469V33.2598C17.879 34.5854 15.3163 35.6776 12.4845 36.3943C10.1464 36.9869 7.84878 37.2669 5.70113 37.2669C3.63042 37.2669 1.69922 37.0069 0 36.5141V9.30923C0.000913313 9.30923 0.00251161 9.30992 0.00342492 9.30992C0.636122 9.49301 1.30079 9.64421 1.99353 9.76168C2.63445 9.87066 3.29911 9.95073 3.98364 10.0001C4.5435 10.0418 5.11661 10.0627 5.70113 10.0627C7.8497 10.0627 10.1464 9.78187 12.4845 9.18992C15.3163 8.47225 17.879 7.38105 20.0317 6.05469ZM16.051 12.3002C15.8827 12.3574 15.7136 12.4135 15.5436 12.4684L16.051 12.4681L16.051 12.3002Z" fill="#04091E"/>
<path fill-rule="evenodd" clip-rule="evenodd" d="M27.486 0V30.0474C25.083 31.5116 22.2222 32.7178 19.0612 33.5094C16.4513 34.164 13.8864 34.4731 11.489 34.4731C9.17756 34.4731 7.0218 34.186 5.125 33.6417V3.59457C5.12602 3.59457 5.1278 3.59533 5.12882 3.59533C5.83509 3.79755 6.57704 3.96454 7.35034 4.09429C8.06578 4.21465 8.80773 4.30309 9.57186 4.35757C10.1968 4.40369 10.8366 4.42675 11.489 4.42675C13.8875 4.42675 16.4513 4.11659 19.0612 3.4628C22.2222 2.67014 25.083 1.46494 27.486 0Z" fill="#04091E"/>
</svg>
